<svg width="14" height="12" viewBox="0 0 14 12" fill="none" xmlns="http://www.w3.org/2000/svg">
<path d="M12.9413 4.39342V0.522105C12.9413 0.324618 12.7816 0.166748 12.5847 0.166748H1.41313C1.21839 0.166748 1.0587 0.324618 1.0587 0.522105V4.39342C0.411225 4.93738 0 5.75552 0 6.67016V7.26457V7.81945V11.6514C0 11.7522 0.0808559 11.8334 0.179321 11.8334H1.57055C1.66904 11.8334 1.74998 11.7522 1.74998 11.6514V9.95148C1.74998 9.85273 1.83084 9.77165 1.9293 9.77165H12.0706C12.1691 9.77165 12.25 9.85275 12.25 9.95148V11.6514C12.25 11.7522 12.3309 11.8334 12.4293 11.8334H13.8206C13.9191 11.8334 14 11.7522 14 11.6514V7.81942V7.26457V6.67016C14.0001 5.75552 13.5887 4.93738 12.9413 4.39342ZM1.12099 5.68388C1.47282 5.02295 2.16722 4.57325 2.96629 4.57325H11.0338C11.8311 4.57325 12.5262 5.02284 12.8785 5.68366C13.0482 6.00175 12.82 6.38722 12.4603 6.38722H1.53949C1.17986 6.38722 0.951705 6.00195 1.12099 5.68388ZM11.1432 3.47655C11.1257 3.52925 11.0775 3.56654 11.0228 3.57306C9.68841 3.71999 8.97747 3.71999 7.64314 3.57306C7.58845 3.56654 7.54027 3.52925 7.52502 3.47655C7.27786 2.75493 7.27786 2.35578 7.52502 1.63188C7.54027 1.58143 7.58845 1.54417 7.64314 1.53762C8.97747 1.39069 9.68841 1.39069 11.0228 1.53762C11.0775 1.54414 11.1257 1.58143 11.1432 1.63188C11.3882 2.35576 11.3882 2.75493 11.1432 3.47655ZM6.47496 3.47655C6.45754 3.52925 6.41163 3.56654 6.35694 3.57306C5.02253 3.71999 4.31159 3.71999 2.97718 3.57306C2.92249 3.56654 2.87431 3.52925 2.85692 3.47655C2.61186 2.75493 2.61186 2.35578 2.85692 1.63188C2.87431 1.58143 2.92249 1.54417 2.97718 1.53762C4.31159 1.39069 5.02253 1.39069 6.35694 1.53762C6.41163 1.54414 6.45754 1.58143 6.47496 1.63188C6.72223 2.35576 6.72223 2.75493 6.47496 3.47655Z" fill="#616161"/>
</svg>
