<svg width="14" height="12" viewBox="0 0 14 12" fill="none" xmlns="http://www.w3.org/2000/svg">
<path d="M12.9413 4.39333V0.522014C12.9413 0.324526 12.7816 0.166656 12.5847 0.166656H1.41313C1.21839 0.166656 1.0587 0.324526 1.0587 0.522014V4.39333C0.411225 4.93729 0 5.75543 0 6.67007V7.26448V7.81936V11.6513C0 11.7521 0.0808559 11.8333 0.179321 11.8333H1.57055C1.66904 11.8333 1.74998 11.7521 1.74998 11.6513V9.95139C1.74998 9.85263 1.83084 9.77156 1.9293 9.77156H12.0706C12.1691 9.77156 12.25 9.85266 12.25 9.95139V11.6513C12.25 11.7521 12.3309 11.8333 12.4293 11.8333H13.8206C13.9191 11.8333 14 11.7521 14 11.6513V7.81933V7.26448V6.67007C14.0001 5.75543 13.5887 4.93729 12.9413 4.39333ZM1.12099 5.68378C1.47282 5.02286 2.16722 4.57316 2.96629 4.57316H11.0338C11.8311 4.57316 12.5262 5.02275 12.8785 5.68357C13.0482 6.00166 12.82 6.38712 12.4603 6.38712H1.53949C1.17986 6.38712 0.951705 6.00185 1.12099 5.68378ZM11.1432 3.47646C11.1257 3.52916 11.0775 3.56645 11.0228 3.57297C9.68841 3.7199 8.97747 3.7199 7.64314 3.57297C7.58845 3.56645 7.54027 3.52916 7.52502 3.47646C7.27786 2.75483 7.27786 2.35569 7.52502 1.63179C7.54027 1.58134 7.58845 1.54408 7.64314 1.53753C8.97747 1.3906 9.68841 1.3906 11.0228 1.53753C11.0775 1.54405 11.1257 1.58134 11.1432 1.63179C11.3882 2.35566 11.3882 2.75483 11.1432 3.47646ZM6.47496 3.47646C6.45754 3.52916 6.41163 3.56645 6.35694 3.57297C5.02253 3.7199 4.31159 3.7199 2.97718 3.57297C2.92249 3.56645 2.87431 3.52916 2.85692 3.47646C2.61186 2.75483 2.61186 2.35569 2.85692 1.63179C2.87431 1.58134 2.92249 1.54408 2.97718 1.53753C4.31159 1.3906 5.02253 1.3906 6.35694 1.53753C6.41163 1.54405 6.45754 1.58134 6.47496 1.63179C6.72223 2.35566 6.72223 2.75483 6.47496 3.47646Z" fill="#1FB588"/>
</svg>
