<svg width="12" height="12" viewBox="0 0 12 12" fill="none" xmlns="http://www.w3.org/2000/svg">
<path d="M6.84408 11.1946C6.94068 11.1472 7.02209 11.0738 7.07909 10.9825C7.1361 10.8913 7.16644 10.7859 7.16667 10.6783V7.57501C7.16667 7.42218 7.22792 7.27518 7.33758 7.16668L10.9082 3.63518C11.1269 3.41876 11.25 3.12476 11.25 2.81851V1.32751C11.2497 1.25127 11.2344 1.17583 11.2049 1.10552C11.1754 1.03522 11.1323 0.971415 11.0781 0.917774C11.0239 0.864133 10.9597 0.821704 10.8891 0.792917C10.8185 0.76413 10.7429 0.74955 10.6667 0.750011H1.33333C1.01075 0.750011 0.75 1.00784 0.75 1.32751V2.81851C0.75 3.12476 0.873083 3.41876 1.09183 3.63518L4.66242 7.16668C4.71652 7.22004 4.75948 7.28361 4.78882 7.3537C4.81816 7.4238 4.83329 7.49902 4.83333 7.57501V11.2558C4.83333 11.6846 5.2895 11.9634 5.67742 11.7715L6.84408 11.1946Z" fill="#FEFEFE"/>
</svg>
