<svg width="11" height="12" viewBox="0 0 11 12" fill="none" xmlns="http://www.w3.org/2000/svg">
<path d="M5.23191 4.32215C5.19611 4.28625 5.16729 4.2463 5.14216 4.20528C5.53534 3.24825 5.25334 1.99588 4.34868 1.09119C3.20503 -0.052325 1.31287 -0.0143992 0.54905 0.749502C-0.214879 1.51343 -0.252886 3.40559 0.890737 4.54921C1.79543 5.4538 3.0478 5.73579 4.00483 5.34262C4.04585 5.36772 4.08579 5.39657 4.12159 5.43236L9.09771 10.8935L9.0991 10.8921C9.15794 10.951 9.22953 10.9908 9.30587 11.0215C9.31184 11.0239 9.31785 11.0265 9.32403 11.0287C9.36259 11.0429 9.40201 11.054 9.44366 11.0614C9.44451 11.0615 9.44535 11.0616 9.44623 11.0617C9.76432 11.1172 10.1596 10.9811 10.4701 10.6707C10.9103 10.2304 11.0099 9.61496 10.693 9.29816L5.23191 4.32215Z" fill="#1FB588"/>
</svg>
