<svg width="24" height="24" viewBox="0 0 24 24" fill="none" xmlns="http://www.w3.org/2000/svg">
<circle cx="12" cy="12" r="12" fill="#F0F0F0"/>
<path fill-rule="evenodd" clip-rule="evenodd" d="M11.8019 5C16.1037 5 19.6039 7.8399 19.6039 11.3313C19.6039 12.7288 19.0626 13.9868 17.9313 15.2264C16.2949 17.1105 12.6348 19.4053 11.8019 19.7564C10.9925 20.0977 11.0861 19.5642 11.1232 19.3536L11.1261 19.336L11.2373 18.668C11.2636 18.4691 11.2909 18.1599 11.2119 17.9629C11.1241 17.7454 10.7789 17.6323 10.5253 17.5777C6.77554 17.0832 4 14.4608 4 11.3313C4 7.8399 7.50112 5 11.8019 5ZM8.89766 12.4957H7.41042V9.79624C7.41042 9.75605 7.39452 9.7175 7.3662 9.689C7.33788 9.6605 7.29944 9.64435 7.25926 9.6441H6.71117C6.69119 9.6441 6.67141 9.64803 6.65295 9.65568C6.63449 9.66332 6.61772 9.67453 6.60359 9.68866C6.58947 9.70279 6.57826 9.71956 6.57061 9.73801C6.56297 9.75647 6.55903 9.77626 6.55903 9.79624V13.1959C6.55903 13.2359 6.57561 13.2739 6.60194 13.3003V13.3013L6.60389 13.3032L6.60584 13.3052C6.63413 13.3324 6.67193 13.3474 6.71117 13.3471H8.89766C8.98153 13.3471 9.04882 13.2788 9.04882 13.1949V12.6488C9.04895 12.6288 9.04514 12.609 9.03762 12.5905C9.03009 12.572 9.01899 12.5552 9.00495 12.541C8.99092 12.5267 8.97422 12.5154 8.95581 12.5077C8.9374 12.4999 8.91764 12.4958 8.89766 12.4957ZM9.66908 9.6441H10.2172C10.301 9.6441 10.3683 9.71236 10.3683 9.79624V13.1959C10.3683 13.2798 10.3001 13.3471 10.2172 13.3471H9.66908C9.6289 13.3471 9.59035 13.3312 9.56184 13.3029C9.53334 13.2746 9.5172 13.2361 9.51694 13.1959V9.79624C9.51694 9.71236 9.58521 9.6441 9.66908 9.6441ZM13.4364 9.6441H13.9826C14.0674 9.6441 14.1357 9.71236 14.1357 9.79624V13.1959C14.1357 13.2798 14.0674 13.3471 13.9835 13.3471H13.4364C13.4233 13.3472 13.4102 13.3455 13.3974 13.3422H13.3955C13.3919 13.341 13.3883 13.3397 13.3847 13.3383L13.3799 13.3364L13.373 13.3334C13.3704 13.3323 13.3677 13.331 13.3652 13.3295L13.3623 13.3286L13.3526 13.3227L13.3516 13.3217C13.3364 13.3115 13.3232 13.2986 13.3126 13.2837L11.7522 11.1772V13.1959C11.7523 13.2159 11.7485 13.2356 11.741 13.2541C11.7334 13.2725 11.7223 13.2893 11.7083 13.3034C11.6942 13.3176 11.6775 13.3288 11.6591 13.3365C11.6407 13.3441 11.621 13.3481 11.601 13.3481H11.0539C11.0137 13.3481 10.9752 13.3322 10.9467 13.3038C10.9182 13.2755 10.902 13.2371 10.9018 13.1969V9.79624C10.9018 9.71236 10.97 9.6441 11.0539 9.6441H11.6069L11.6118 9.64507H11.6176L11.6205 9.64605H11.6264L11.6361 9.64897H11.6381L11.64 9.64995L11.6498 9.65287L11.6547 9.65482C11.6577 9.65596 11.6606 9.65727 11.6634 9.65873L11.6664 9.6597L11.6683 9.66068C11.6727 9.66299 11.677 9.6656 11.681 9.66848L11.6839 9.67043L11.6888 9.67335V9.67433C11.6908 9.67433 11.6917 9.67628 11.6927 9.67726C11.6954 9.67906 11.698 9.68102 11.7005 9.68311L11.7034 9.68603C11.7118 9.6937 11.7193 9.70219 11.7259 9.71139L13.2843 11.8169V9.79624C13.2843 9.71236 13.3526 9.6441 13.4364 9.6441ZM17.157 10.3433C17.157 10.4272 17.0887 10.4955 17.0058 10.4955H15.5176V11.0709H17.0048C17.0887 11.0709 17.156 11.1391 17.156 11.222V11.7691C17.156 11.853 17.0877 11.9213 17.0048 11.9213H15.5176V12.4967H17.0048C17.0887 12.4967 17.156 12.5649 17.156 12.6478V13.1949C17.156 13.2788 17.0877 13.3471 17.0048 13.3471H14.8183C14.7985 13.3472 14.7787 13.3434 14.7603 13.3358C14.7419 13.3283 14.7252 13.3172 14.7111 13.3032L14.7091 13.3003C14.6819 13.2723 14.6665 13.2349 14.6662 13.1959V9.79624C14.6662 9.75528 14.6828 9.71822 14.7081 9.69188L14.7111 9.68896L14.712 9.68798C14.7403 9.65992 14.7785 9.64415 14.8183 9.6441H17.0048C17.0887 9.6441 17.156 9.71236 17.156 9.79624V10.3433H17.157Z" fill="#FEFEFE"/>
</svg>
