<svg width="25" height="24" viewBox="0 0 25 24" fill="none" xmlns="http://www.w3.org/2000/svg">
<circle cx="12.439" cy="12" r="12" fill="#FEFEFE"/>
<path fill-rule="evenodd" clip-rule="evenodd" d="M12.2409 5C16.5427 5 20.0428 7.8399 20.0428 11.3313C20.0428 12.7288 19.5016 13.9868 18.3703 15.2264C16.7338 17.1105 13.0737 19.4053 12.2409 19.7564C11.4314 20.0977 11.5251 19.5642 11.5621 19.3536L11.5651 19.336L11.6762 18.668C11.7026 18.4691 11.7299 18.1599 11.6509 17.9629C11.5631 17.7454 11.2179 17.6323 10.9643 17.5777C7.2145 17.0832 4.43896 14.4608 4.43896 11.3313C4.43896 7.8399 7.94008 5 12.2409 5ZM9.33663 12.4957H7.84938V9.79624C7.84938 9.75605 7.83349 9.7175 7.80517 9.689C7.77685 9.6605 7.7384 9.64435 7.69822 9.6441H7.15013C7.13016 9.6441 7.11037 9.64803 7.09191 9.65568C7.07346 9.66332 7.05668 9.67453 7.04256 9.68866C7.02843 9.70279 7.01722 9.71956 7.00958 9.73801C7.00193 9.75647 6.998 9.77626 6.998 9.79624V13.1959C6.998 13.2359 7.01458 13.2739 7.04091 13.3003V13.3013L7.04286 13.3032L7.04481 13.3052C7.07309 13.3324 7.1109 13.3474 7.15013 13.3471H9.33663C9.4205 13.3471 9.48779 13.2788 9.48779 13.1949V12.6488C9.48792 12.6288 9.48411 12.609 9.47658 12.5905C9.46905 12.572 9.45795 12.5552 9.44392 12.541C9.42988 12.5267 9.41318 12.5154 9.39477 12.5077C9.37636 12.4999 9.3566 12.4958 9.33663 12.4957ZM10.108 9.6441H10.6561C10.74 9.6441 10.8073 9.71236 10.8073 9.79624V13.1959C10.8073 13.2798 10.739 13.3471 10.6561 13.3471H10.108C10.0679 13.3471 10.0293 13.3312 10.0008 13.3029C9.9723 13.2746 9.95616 13.2361 9.9559 13.1959V9.79624C9.9559 9.71236 10.0242 9.6441 10.108 9.6441ZM13.8754 9.6441H14.4215C14.5064 9.6441 14.5746 9.71236 14.5746 9.79624V13.1959C14.5746 13.2798 14.5064 13.3471 14.4225 13.3471H13.8754C13.8622 13.3472 13.8491 13.3455 13.8364 13.3422H13.8344C13.8308 13.341 13.8272 13.3397 13.8237 13.3383L13.8188 13.3364L13.812 13.3334C13.8093 13.3323 13.8067 13.331 13.8042 13.3295L13.8013 13.3286L13.7915 13.3227L13.7906 13.3217C13.7753 13.3115 13.7621 13.2986 13.7515 13.2837L12.1912 11.1772V13.1959C12.1913 13.2159 12.1875 13.2356 12.1799 13.2541C12.1724 13.2725 12.1613 13.2893 12.1472 13.3034C12.1332 13.3176 12.1165 13.3288 12.0981 13.3365C12.0797 13.3441 12.0599 13.3481 12.04 13.3481H11.4929C11.4527 13.3481 11.4142 13.3322 11.3856 13.3038C11.3571 13.2755 11.341 13.2371 11.3407 13.1969V9.79624C11.3407 9.71236 11.409 9.6441 11.4929 9.6441H12.0458L12.0507 9.64507H12.0566L12.0595 9.64605H12.0653L12.0751 9.64897H12.0771L12.079 9.64995L12.0888 9.65287L12.0936 9.65482C12.0966 9.65596 12.0996 9.65727 12.1024 9.65873L12.1053 9.6597L12.1073 9.66068C12.1117 9.66299 12.1159 9.6656 12.12 9.66848L12.1229 9.67043L12.1278 9.67335V9.67433C12.1297 9.67433 12.1307 9.67628 12.1317 9.67726C12.1344 9.67906 12.137 9.68102 12.1395 9.68311L12.1424 9.68603C12.1507 9.6937 12.1582 9.70219 12.1648 9.71139L13.7233 11.8169V9.79624C13.7233 9.71236 13.7915 9.6441 13.8754 9.6441ZM17.5959 10.3433C17.5959 10.4272 17.5277 10.4955 17.4448 10.4955H15.9566V11.0709H17.4438C17.5277 11.0709 17.595 11.1391 17.595 11.222V11.7691C17.595 11.853 17.5267 11.9213 17.4438 11.9213H15.9566V12.4967H17.4438C17.5277 12.4967 17.595 12.5649 17.595 12.6478V13.1949C17.595 13.2788 17.5267 13.3471 17.4438 13.3471H15.2573C15.2374 13.3472 15.2177 13.3434 15.1993 13.3358C15.1809 13.3283 15.1642 13.3172 15.15 13.3032L15.1481 13.3003C15.1209 13.2723 15.1055 13.2349 15.1052 13.1959V9.79624C15.1052 9.75528 15.1218 9.71822 15.1471 9.69188L15.15 9.68896L15.151 9.68798C15.1793 9.65992 15.2175 9.64415 15.2573 9.6441H17.4438C17.5277 9.6441 17.595 9.71236 17.595 9.79624V10.3433H17.5959Z" fill="#28DAA5"/>
</svg>
