<svg width="14" height="15" viewBox="0 0 14 15" fill="none" xmlns="http://www.w3.org/2000/svg">
<path d="M13.5763 12.1499L10.651 9.21608C11.1766 8.35082 11.4799 7.33557 11.4815 6.24913C11.4825 5.57415 11.3659 4.92673 11.1529 4.32484C11.1511 4.31973 11.1495 4.3145 11.1477 4.30936C11.1207 4.2339 11.0916 4.15941 11.0616 4.08542C11.0563 4.07208 11.0514 4.05854 11.046 4.0452C11.0168 3.97495 10.9858 3.9058 10.954 3.83695C10.9466 3.82103 10.9399 3.80496 10.9324 3.78915C10.8989 3.71828 10.8634 3.64869 10.8272 3.57953C10.8205 3.56682 10.8144 3.55391 10.8077 3.54131C10.7654 3.4619 10.7211 3.38375 10.6751 3.30673C10.6742 3.30522 10.6735 3.30372 10.6726 3.30235C10.139 2.40879 9.36973 1.67253 8.45011 1.17922C8.44841 1.17827 8.44658 1.17742 8.44478 1.17643C8.36452 1.1335 8.28307 1.09233 8.20071 1.05314C8.19912 1.0524 8.19748 1.05177 8.19589 1.05101C7.45376 0.699396 6.62464 0.501291 5.74913 0.500006C2.57854 0.495412 0.00460064 3.06192 6.90144e-06 6.2325C-0.00103216 6.90696 0.115288 7.55386 0.328104 8.15528C0.330127 8.16102 0.33185 8.16682 0.333846 8.17256C0.360752 8.2477 0.389682 8.32189 0.419541 8.39563C0.424982 8.40919 0.430014 8.42295 0.435564 8.43651C0.464385 8.5061 0.495228 8.5746 0.526619 8.64271C0.53433 8.65936 0.541357 8.67634 0.54926 8.69286C0.582674 8.76343 0.618002 8.83291 0.654068 8.90174C0.660794 8.91456 0.666974 8.92769 0.67381 8.94037C0.716302 9.01989 0.760681 9.09836 0.806673 9.17561C0.807411 9.17679 0.808068 9.17807 0.808806 9.17925C1.34225 10.0727 2.11149 10.8089 3.03097 11.3023C3.03354 11.3037 3.0363 11.3049 3.03887 11.3063C3.11839 11.3488 3.19897 11.3896 3.28051 11.4284C3.28275 11.4294 3.285 11.4303 3.28713 11.4314C4.0288 11.7826 4.85737 11.9804 5.73237 11.9816C6.81826 11.9832 7.83406 11.6829 8.70071 11.1605L11.6262 14.0944C11.8945 14.3635 12.248 14.4995 12.5992 14.5C12.9528 14.5004 13.3044 14.3655 13.5734 14.0972C14.1139 13.5606 14.1151 12.6881 13.5763 12.1499ZM9.50973 6.24636C9.50664 8.32443 7.81344 10.0128 5.73526 10.0098C3.65709 10.0067 1.96878 8.31346 1.9719 6.2354C1.97488 4.15733 3.66808 2.46881 5.74626 2.47181C7.82446 2.47488 9.51274 4.16827 9.50973 6.24636Z" fill="#616161"/>
</svg>
