<svg width="14" height="14" viewBox="0 0 14 14" fill="none" xmlns="http://www.w3.org/2000/svg">
<path d="M3.58543 1.01305C3.65357 1.00293 3.72174 0.996919 3.78977 0.992981C4.10614 0.974907 4.41449 1.00695 4.70472 1.08313L4.75482 0.880844C4.76089 0.858832 4.789 0.856809 4.79895 0.876879C4.8249 0.944911 4.869 1.05303 4.90704 1.14509C5.15964 1.23 5.39644 1.35017 5.61221 1.49939C5.61412 1.50076 5.61617 1.50196 5.61809 1.50324H5.6182C5.61937 1.50409 5.62066 1.50472 5.62183 1.5056L5.73206 1.32745C5.74198 1.30738 5.77201 1.31334 5.77403 1.33535C5.77808 1.41151 5.78803 1.53562 5.79806 1.6357C5.9647 1.77274 6.11561 1.92858 6.24998 2.09819C6.25968 2.11102 6.27188 2.12253 6.28126 2.13535L6.2817 2.13494C6.28265 2.13609 6.28372 2.13707 6.28459 2.13825L6.41073 1.99223C6.418 1.98496 6.42719 1.98444 6.43509 1.98649L6.44341 1.99565C6.44641 1.99962 6.45145 2.00197 6.45079 2.00818C6.44289 2.09234 6.42889 2.23045 6.42282 2.33461C6.59897 2.61092 6.7312 2.91927 6.8053 3.25166C6.81651 3.20031 6.83018 3.14912 6.84386 3.09796C6.85452 3.0578 6.86631 3.01796 6.87847 2.97822C6.90732 2.88413 6.94 2.79111 6.97708 2.69926C6.99244 2.66112 7.00858 2.62341 7.02536 2.58592C7.04554 2.54064 7.06542 2.49522 7.08765 2.45079C7.20173 2.22444 7.33588 2.01425 7.49407 1.82199C7.27381 0.728758 6.28465 -0.0621623 5.14944 0.00384567C4.47662 0.0439044 3.88993 0.378319 3.5055 0.874883C3.4594 0.934875 3.50939 1.023 3.58543 1.01305Z" fill="#616161"/>
<path d="M12.6059 3.18339C12.686 3.22548 12.7661 3.26745 12.8443 3.31361C12.8641 3.32558 12.8842 3.32963 12.9023 3.32963C12.9723 3.32963 13.0325 3.26554 13.0124 3.18938C12.8041 2.38252 12.2656 1.67169 11.4665 1.27124C11.0422 1.05687 10.5896 0.956787 10.143 0.956787C9.09583 0.956787 8.08263 1.50954 7.5301 2.47459C7.49996 2.52468 7.47199 2.5768 7.44604 2.62873C7.29778 2.92716 7.20167 3.23551 7.15767 3.54783L7.15565 3.54986C7.14572 3.56588 7.13569 3.5819 7.1236 3.5959C7.06755 3.56779 7.00151 3.56993 6.9494 3.59782C6.94182 3.60113 6.93818 3.60881 6.93146 3.61308C6.91437 3.623 6.89782 3.63358 6.87857 3.64343C6.87387 3.63222 6.86939 3.62057 6.86332 3.60988V3.60796C6.83534 3.54783 6.80723 3.48781 6.77316 3.42971V3.42779C6.69113 3.2756 6.59297 3.12745 6.47889 2.98912C5.51983 1.8238 3.80773 1.64768 2.65447 2.59671C2.02975 3.10929 1.69531 3.84823 1.67332 4.60317C1.67163 4.6791 1.74863 4.72066 1.81283 4.69608C1.81346 4.69586 1.81412 4.69543 1.81485 4.69513C1.82606 4.69053 1.83782 4.6884 1.84753 4.67921C1.90766 4.62111 1.96973 4.56705 2.03177 4.51493C2.32605 4.27269 2.64849 4.08651 2.98484 3.9563L2.89072 3.72409C2.88069 3.70006 2.90664 3.67807 2.92876 3.69204C3.00275 3.73809 3.12101 3.81219 3.22303 3.87224C3.52775 3.7779 3.84191 3.72847 4.15453 3.72097C4.15901 3.72097 4.16339 3.72045 4.16787 3.72045V3.72035C4.16927 3.72024 4.17077 3.72013 4.17225 3.72013L4.15024 3.46774C4.1481 3.44179 4.18026 3.42779 4.1982 3.44767C4.2563 3.51784 4.35233 3.63 4.43447 3.72207C4.69487 3.73522 4.95505 3.77933 5.20727 3.85036C5.22307 3.85515 5.23931 3.85879 5.25501 3.86382L5.25512 3.86308C5.25651 3.86349 5.25802 3.86382 5.25941 3.86423L5.2815 3.63394C5.28342 3.60796 5.31752 3.59998 5.32947 3.62185C5.38158 3.70807 5.46575 3.85225 5.53378 3.95832C6.01432 4.14855 6.46079 4.44291 6.83124 4.84541V4.84743C6.8243 4.99323 6.81588 5.14726 6.80721 5.31047L6.80048 5.38799C6.21461 4.88043 5.45752 4.55903 4.6197 4.53084C4.34339 4.52166 4.07474 4.54782 3.81497 4.59909C3.80707 4.60068 3.7995 4.60273 3.79159 4.60421C3.69203 4.62461 3.59401 4.64823 3.49765 4.67675C3.47298 4.68402 3.44917 4.69277 3.42469 4.70057C3.34652 4.72567 3.26897 4.75162 3.19323 4.78186C3.15008 4.79895 3.10841 4.81869 3.06613 4.83739C3.0106 4.86217 2.95485 4.88642 2.90079 4.91399C2.8414 4.94401 2.78436 4.97742 2.72713 5.01073C2.69166 5.03145 2.65554 5.05079 2.62084 5.07269C2.55057 5.11693 2.48316 5.16486 2.41642 5.21381C2.39591 5.22896 2.37455 5.24285 2.35435 5.25846C2.28044 5.31528 2.2097 5.37574 2.14071 5.43811C2.12843 5.44921 2.11539 5.45947 2.10333 5.47079C2.03391 5.53529 1.9682 5.60343 1.90435 5.67351C1.89314 5.68571 1.88116 5.69711 1.87006 5.70964C1.81248 5.77466 1.75877 5.84291 1.70622 5.91214C1.69041 5.93287 1.67343 5.95242 1.65815 5.97334C1.61776 6.0292 1.58123 6.08775 1.54407 6.14607C1.5197 6.18408 1.49386 6.22105 1.47101 6.26015C1.45083 6.29488 1.43352 6.33138 1.41451 6.36684C1.1699 6.82037 1.02038 7.33285 1.00189 7.88131C0.967824 8.91802 1.39548 9.86395 2.10396 10.5243C2.18944 10.6033 2.3287 10.5376 2.32411 10.4209C2.32003 10.3154 2.32036 10.2099 2.32337 10.1037C2.33983 9.61614 2.43241 9.14916 2.59188 8.71442L2.28919 8.60975C2.25725 8.59821 2.2578 8.55399 2.29025 8.54396C2.39728 8.51246 2.56935 8.46086 2.71419 8.41353C2.88093 8.04012 3.09947 7.69532 3.35762 7.38589C3.36093 7.38207 3.3638 7.37788 3.36714 7.37414L3.36703 7.37405C3.36798 7.37288 3.36883 7.3717 3.36971 7.37061L3.11005 7.17868C3.08249 7.15872 3.09605 7.11459 3.13045 7.11544C3.24655 7.11812 3.43667 7.12088 3.59294 7.11973L3.5942 7.11929C3.82853 6.88069 4.09002 6.66779 4.37309 6.48483C4.39135 6.4734 4.40899 6.46061 4.42734 6.44948L4.42682 6.44893C4.4281 6.44808 4.42928 6.44724 4.43056 6.44647L4.226 6.2304C4.20295 6.20628 4.22354 6.16718 4.25668 6.17262C4.38219 6.19652 4.59249 6.23723 4.75292 6.26329C5.34103 5.95931 6.00519 5.78521 6.705 5.76908C6.72903 5.76867 6.75285 5.76695 6.77702 5.76695C6.72961 6.4203 6.65332 7.17783 6.53306 8.00829C6.52912 8.03509 6.52483 8.06181 6.52078 8.08852C6.48532 8.32926 6.44526 8.57685 6.402 8.82883C6.35767 9.08165 6.31258 9.33428 6.26186 9.58464C6.26238 9.58453 6.26293 9.58453 6.26345 9.58442C6.26323 9.58592 6.26293 9.58743 6.2626 9.58893C6.57897 9.52877 6.9054 9.49675 7.23779 9.49675C7.71341 9.49675 8.17207 9.56405 8.60957 9.68387C8.66607 9.69989 8.72333 9.71324 8.77919 9.73128C8.77908 9.73087 8.77908 9.73033 8.77908 9.72981C8.78056 9.73033 8.78209 9.73065 8.78356 9.73109C8.70815 8.59545 8.5489 7.21716 8.22783 5.99043C8.19737 5.87271 8.16565 5.75628 8.13212 5.64158C8.12048 5.60217 8.10894 5.56288 8.09696 5.52386C8.0443 5.35138 7.98843 5.18239 7.92811 5.01961C8.4801 5.01576 9.01224 5.12587 9.49642 5.32786C9.63655 5.2939 9.82069 5.24381 9.9308 5.21176C9.93731 5.21036 9.94322 5.21143 9.94866 5.21356C9.95068 5.2143 9.95218 5.2157 9.95399 5.21687C9.96222 5.22231 9.96788 5.23076 9.96862 5.24047C9.96884 5.24282 9.96829 5.24487 9.96799 5.24709C9.96733 5.25201 9.96638 5.25712 9.96296 5.26183L9.82635 5.43133L9.79868 5.46422C9.799 5.46433 9.79922 5.46453 9.79941 5.46464L9.79663 5.46808C10.081 5.61623 10.3453 5.79651 10.5855 6.00673H10.5876C10.7258 5.99669 10.8939 5.98064 10.998 5.96869C11.0281 5.96656 11.0441 6.0047 11.02 6.02466L10.8208 6.19802L10.8068 6.20978C10.807 6.20989 10.8071 6.20989 10.8071 6.20989L10.8038 6.21287C11.0601 6.47116 11.2824 6.76757 11.4606 7.09195C11.5907 7.12399 11.7489 7.15807 11.845 7.17805C11.8751 7.18401 11.879 7.22418 11.8511 7.23616L11.6017 7.34458L11.5927 7.34832V7.34843L11.5888 7.35024C11.7629 7.72471 11.8771 8.13317 11.9271 8.56564C11.9371 8.65976 11.9451 8.75194 11.9492 8.84592C11.9498 8.86238 11.9578 8.87452 11.9639 8.88789C11.9645 8.88937 11.9647 8.89109 11.9655 8.89257C11.9929 8.94641 12.0545 8.96916 12.1097 8.946C12.1117 8.94515 12.1134 8.94375 12.1154 8.94277C12.1279 8.9367 12.141 8.93339 12.1513 8.92204C12.734 8.28534 13.0463 7.41633 12.9423 6.4973C12.8639 5.81319 12.5628 5.20927 12.122 4.74229C12.1196 4.73983 12.1173 4.73737 12.115 4.73491C12.054 4.67082 11.9908 4.6094 11.9248 4.55067C11.9208 4.54725 11.9169 4.54405 11.913 4.54063C11.847 4.48264 11.7791 4.42729 11.7084 4.37509C11.7053 4.37263 11.702 4.3705 11.6988 4.36815C11.0867 3.91911 10.3096 3.68745 9.49226 3.78017C9.18593 3.81616 8.8936 3.89433 8.62325 4.00841C8.40299 4.10048 8.19685 4.21672 8.00853 4.35672C7.97905 4.37744 7.9531 4.40318 7.92448 4.42519C7.86063 4.47369 7.79919 4.52291 7.73969 4.57399C7.72186 4.53423 7.704 4.49464 7.68415 4.45691C7.96251 4.04833 8.3089 3.70807 8.70131 3.44177C8.74747 3.30953 8.80342 3.13543 8.83751 3.02926C8.84145 3.01528 8.85354 3.00919 8.8656 3.00919C8.87757 3.00919 8.88963 3.01723 8.89357 3.03131L8.95914 3.22955L8.97155 3.2698C8.97174 3.26961 8.97207 3.26961 8.97229 3.26939L8.97366 3.27355C9.01618 3.24943 9.05998 3.22775 9.10332 3.2053C9.15224 3.17998 9.20192 3.15575 9.25243 3.13234C9.33542 3.09401 9.41972 3.05876 9.50492 3.02619C9.57757 2.99874 9.65094 2.97246 9.72613 2.94887C9.75903 2.93839 9.79159 2.92675 9.82463 2.91712H9.82654C9.89072 2.799 9.96679 2.65478 10.0128 2.56477C10.0188 2.55473 10.0288 2.54874 10.0389 2.54874C10.0528 2.54874 10.0669 2.55867 10.0689 2.57683L10.1041 2.82965L10.1061 2.84687C10.1062 2.84687 10.1063 2.84687 10.1064 2.84687L10.107 2.85114C10.3592 2.79902 10.6176 2.77305 10.8759 2.77305C10.972 2.77305 11.0701 2.77701 11.1662 2.78502C11.2622 2.69487 11.3704 2.58487 11.4386 2.51672C11.4445 2.51074 11.4525 2.50871 11.4606 2.50871C11.4766 2.50871 11.4926 2.52269 11.4886 2.54278L11.4457 2.80714L11.4452 2.81078L11.4446 2.81505C11.8391 2.8731 12.2295 2.99519 12.6059 3.18339Z" fill="#616161"/>
<path d="M8.81952 10.382C8.32884 10.1977 7.79424 10.0977 7.23766 10.0977C6.85517 10.0977 6.4828 10.1457 6.12843 10.2359C4.46045 10.6523 3.17688 11.9898 2.88862 13.6557C2.85655 13.836 3.02274 14.0001 3.23496 14.0001H11.2383C11.4524 14.0001 11.6187 13.836 11.5866 13.6557C11.3264 12.1521 10.253 10.9145 8.81952 10.382ZM4.43841 12.5344C4.72468 11.9738 5.23535 11.5453 5.85996 11.3551C6.05821 11.2929 6.26843 11.257 6.48674 11.2469C6.48876 11.2469 6.48876 11.2469 6.49079 11.2469C6.66896 11.2409 6.77705 11.4472 6.67292 11.5893C6.63691 11.6393 6.60082 11.6914 6.56686 11.7435C6.3746 12.0339 6.21844 12.3382 6.10234 12.6526C6.07221 12.7366 5.99616 12.7928 5.90803 12.7968L4.64456 12.8508C4.47645 12.8588 4.36229 12.6826 4.43841 12.5344Z" fill="#616161"/>
</svg>
