<svg width="14" height="14" viewBox="0 0 14 14" fill="none" xmlns="http://www.w3.org/2000/svg">
<path d="M3.58537 1.01305C3.65351 1.00293 3.72168 0.996919 3.78971 0.992981C4.10608 0.974907 4.41443 1.00695 4.70466 1.08313L4.75475 0.880844C4.76083 0.858832 4.78893 0.856809 4.79889 0.876879C4.82484 0.944911 4.86894 1.05303 4.90698 1.14509C5.15958 1.23 5.39638 1.35017 5.61215 1.49939C5.61406 1.50076 5.61611 1.50196 5.61803 1.50324H5.61814C5.61931 1.50409 5.6206 1.50472 5.62177 1.5056L5.732 1.32745C5.74192 1.30738 5.77195 1.31334 5.77397 1.33535C5.77802 1.41151 5.78797 1.53562 5.798 1.6357C5.96464 1.77274 6.11555 1.92858 6.24992 2.09819C6.25962 2.11102 6.27182 2.12253 6.2812 2.13535L6.28163 2.13494C6.28259 2.13609 6.28366 2.13707 6.28453 2.13825L6.41067 1.99223C6.41794 1.98496 6.42713 1.98444 6.43503 1.98649L6.44335 1.99565C6.44635 1.99962 6.45138 2.00197 6.45073 2.00818C6.44283 2.09234 6.42883 2.23045 6.42276 2.33461C6.5989 2.61091 6.73114 2.91927 6.80524 3.25166C6.81645 3.20031 6.83012 3.14912 6.8438 3.09796C6.85446 3.0578 6.86625 3.01796 6.87841 2.97822C6.90726 2.88413 6.93994 2.79111 6.97702 2.69926C6.99238 2.66112 7.00851 2.62341 7.0253 2.58592C7.04548 2.54064 7.06536 2.49522 7.08759 2.45079C7.20167 2.22444 7.33582 2.01425 7.494 1.82199C7.27375 0.728758 6.28459 -0.0621623 5.14938 0.00384567C4.47656 0.0439044 3.88987 0.378319 3.50544 0.874883C3.45934 0.934875 3.50933 1.023 3.58537 1.01305Z" fill="#1FB588"/>
<path d="M12.6059 3.18352C12.686 3.2256 12.7661 3.26757 12.8443 3.31373C12.8641 3.3257 12.8842 3.32975 12.9023 3.32975C12.9723 3.32975 13.0325 3.26566 13.0124 3.18951C12.8041 2.38264 12.2656 1.67181 11.4665 1.27136C11.0422 1.05699 10.5896 0.956909 10.143 0.956909C9.09583 0.956909 8.08263 1.50966 7.5301 2.47471C7.49996 2.5248 7.47199 2.57692 7.44604 2.62885C7.29778 2.92728 7.20167 3.23563 7.15767 3.54796L7.15565 3.54998C7.14572 3.566 7.13569 3.58203 7.1236 3.59603C7.06755 3.56792 7.00151 3.57005 6.9494 3.59794C6.94182 3.60125 6.93818 3.60893 6.93146 3.6132C6.91437 3.62312 6.89782 3.63371 6.87857 3.64355C6.87387 3.63234 6.86939 3.62069 6.86332 3.61V3.60808C6.83534 3.54796 6.80723 3.48794 6.77316 3.42983V3.42792C6.69113 3.27572 6.59297 3.12757 6.47889 2.98924C5.51983 1.82393 3.80773 1.64781 2.65447 2.59683C2.02975 3.10941 1.69531 3.84835 1.67332 4.60329C1.67163 4.67922 1.74863 4.72079 1.81283 4.6962C1.81346 4.69599 1.81412 4.69555 1.81485 4.69525C1.82606 4.69065 1.83782 4.68852 1.84753 4.67933C1.90766 4.62123 1.96973 4.56717 2.03177 4.51505C2.32605 4.27281 2.64849 4.08663 2.98484 3.95642L2.89072 3.72421C2.88069 3.70018 2.90664 3.67819 2.92876 3.69217C3.00275 3.73821 3.12101 3.81232 3.22303 3.87236C3.52775 3.77803 3.84191 3.72859 4.15453 3.7211C4.15901 3.7211 4.16339 3.72058 4.16787 3.72058V3.72047C4.16927 3.72036 4.17077 3.72025 4.17225 3.72025L4.15024 3.46786C4.1481 3.44192 4.18026 3.42792 4.1982 3.44779C4.2563 3.51796 4.35233 3.63012 4.43447 3.72219C4.69487 3.73534 4.95505 3.77945 5.20727 3.85049C5.22307 3.85527 5.23931 3.85891 5.25501 3.86394L5.25512 3.8632C5.25651 3.86361 5.25802 3.86394 5.25941 3.86435L5.2815 3.63406C5.28342 3.60808 5.31752 3.6001 5.32947 3.62197C5.38158 3.70819 5.46575 3.85237 5.53378 3.95844C6.01432 4.14867 6.46079 4.44303 6.83124 4.84553V4.84755C6.8243 4.99335 6.81588 5.14738 6.80721 5.31059L6.80048 5.38811C6.21461 4.88056 5.45752 4.55916 4.6197 4.53097C4.34339 4.52178 4.07474 4.54795 3.81497 4.59922C3.80707 4.6008 3.7995 4.60285 3.79159 4.60433C3.69203 4.62473 3.59401 4.64835 3.49765 4.67687C3.47298 4.68415 3.44917 4.6929 3.42469 4.70069C3.34652 4.72579 3.26897 4.75174 3.19323 4.78198C3.15008 4.79907 3.10841 4.81881 3.06613 4.83752C3.0106 4.86229 2.95485 4.88654 2.90079 4.91411C2.8414 4.94413 2.78436 4.97754 2.72713 5.01085C2.69166 5.03158 2.65554 5.05091 2.62084 5.07281C2.55057 5.11705 2.48316 5.16499 2.41642 5.21393C2.39591 5.22908 2.37455 5.24297 2.35435 5.25858C2.28044 5.3154 2.2097 5.37586 2.14071 5.43823C2.12843 5.44934 2.11539 5.45959 2.10333 5.47091C2.03391 5.53541 1.9682 5.60355 1.90435 5.67364C1.89314 5.68583 1.88116 5.69723 1.87006 5.70976C1.81248 5.77478 1.75877 5.84303 1.70622 5.91227C1.69041 5.93299 1.67343 5.95254 1.65815 5.97346C1.61776 6.02932 1.58123 6.08787 1.54407 6.14619C1.5197 6.1842 1.49386 6.22117 1.47101 6.26027C1.45083 6.295 1.43352 6.3315 1.41451 6.36697C1.1699 6.82049 1.02038 7.33297 1.00189 7.88143C0.967824 8.91814 1.39548 9.86408 2.10396 10.5244C2.18944 10.6034 2.3287 10.5377 2.32411 10.421C2.32003 10.3156 2.32036 10.21 2.32337 10.1039C2.33983 9.61626 2.43241 9.14928 2.59188 8.71454L2.28919 8.60987C2.25725 8.59833 2.2578 8.55412 2.29025 8.54408C2.39728 8.51258 2.56935 8.46098 2.71419 8.41365C2.88093 8.04024 3.09947 7.69544 3.35762 7.38602C3.36093 7.38219 3.3638 7.378 3.36714 7.37426L3.36703 7.37418C3.36798 7.373 3.36883 7.37182 3.36971 7.37073L3.11005 7.1788C3.08249 7.15884 3.09605 7.11471 3.13045 7.11556C3.24655 7.11824 3.43667 7.121 3.59294 7.11985L3.5942 7.11941C3.82853 6.88081 4.09002 6.66791 4.37309 6.48496C4.39135 6.47353 4.40899 6.46073 4.42734 6.4496L4.42682 6.44905C4.4281 6.4482 4.42928 6.44736 4.43056 6.44659L4.226 6.23052C4.20295 6.2064 4.22354 6.1673 4.25668 6.17274C4.38219 6.19664 4.59249 6.23736 4.75292 6.26342C5.34103 5.95943 6.00519 5.78534 6.705 5.7692C6.72903 5.76879 6.75285 5.76707 6.77702 5.76707C6.72961 6.42042 6.65332 7.17796 6.53306 8.00842C6.52912 8.03521 6.52483 8.06193 6.52078 8.08864C6.48532 8.32938 6.44526 8.57698 6.402 8.82895C6.35767 9.08177 6.31258 9.3344 6.26186 9.58476C6.26238 9.58465 6.26293 9.58465 6.26345 9.58454C6.26323 9.58605 6.26293 9.58755 6.2626 9.58905C6.57897 9.5289 6.9054 9.49688 7.23779 9.49688C7.71341 9.49688 8.17207 9.56417 8.60957 9.68399C8.66607 9.70001 8.72333 9.71336 8.77919 9.7314C8.77908 9.73099 8.77908 9.73045 8.77908 9.72993C8.78056 9.73045 8.78209 9.73078 8.78356 9.73121C8.70815 8.59557 8.5489 7.21728 8.22783 5.99055C8.19737 5.87284 8.16565 5.75641 8.13212 5.6417C8.12048 5.6023 8.10894 5.563 8.09696 5.52398C8.0443 5.3515 7.98843 5.18251 7.92811 5.01974C8.4801 5.01588 9.01224 5.12599 9.49642 5.32798C9.63655 5.29402 9.82069 5.24393 9.9308 5.21188C9.93731 5.21049 9.94322 5.21155 9.94866 5.21369C9.95068 5.21442 9.95218 5.21582 9.95399 5.21699C9.96222 5.22244 9.96788 5.23089 9.96862 5.24059C9.96884 5.24294 9.96829 5.24499 9.96799 5.24721C9.96733 5.25213 9.96638 5.25724 9.96296 5.26195L9.82635 5.43145L9.79868 5.46435C9.799 5.46446 9.79922 5.46465 9.79941 5.46476L9.79663 5.4682C10.081 5.61635 10.3453 5.79663 10.5855 6.00685H10.5876C10.7258 5.99681 10.8939 5.98076 10.998 5.96881C11.0281 5.96668 11.0441 6.00483 11.02 6.02479L10.8208 6.19815L10.8068 6.2099C10.807 6.21001 10.8071 6.21001 10.8071 6.21001L10.8038 6.21299C11.0601 6.47128 11.2824 6.76769 11.4606 7.09207C11.5907 7.12412 11.7489 7.15819 11.845 7.17818C11.8751 7.18414 11.879 7.2243 11.8511 7.23628L11.6017 7.3447L11.5927 7.34845V7.34856L11.5888 7.35036C11.7629 7.72483 11.8771 8.1333 11.9271 8.56577C11.9371 8.65988 11.9451 8.75206 11.9492 8.84604C11.9498 8.8625 11.9578 8.87464 11.9639 8.88801C11.9645 8.88949 11.9647 8.89121 11.9655 8.89269C11.9929 8.94653 12.0545 8.96928 12.1097 8.94612C12.1117 8.94527 12.1134 8.94388 12.1154 8.94289C12.1279 8.93682 12.141 8.93351 12.1513 8.92216C12.734 8.28546 13.0463 7.41645 12.9423 6.49742C12.8639 5.81331 12.5628 5.20939 12.122 4.74242C12.1196 4.73995 12.1173 4.73749 12.115 4.73503C12.054 4.67094 11.9908 4.60952 11.9248 4.55079C11.9208 4.54737 11.9169 4.54417 11.913 4.54075C11.847 4.48276 11.7791 4.42741 11.7084 4.37521C11.7053 4.37275 11.702 4.37062 11.6988 4.36827C11.0867 3.91923 10.3096 3.68757 9.49226 3.7803C9.18593 3.81628 8.8936 3.89446 8.62325 4.00853C8.40299 4.1006 8.19685 4.21684 8.00853 4.35684C7.97905 4.37757 7.9531 4.4033 7.92448 4.42531C7.86063 4.47382 7.79919 4.52304 7.73969 4.57411C7.72186 4.53436 7.704 4.49476 7.68415 4.45703C7.96251 4.04846 8.3089 3.70819 8.70131 3.44189C8.74747 3.30965 8.80342 3.13556 8.83751 3.02938C8.84145 3.01541 8.85354 3.00931 8.8656 3.00931C8.87757 3.00931 8.88963 3.01735 8.89357 3.03143L8.95914 3.22967L8.97155 3.26992C8.97174 3.26973 8.97207 3.26973 8.97229 3.26951L8.97366 3.27367C9.01618 3.24955 9.05998 3.22787 9.10332 3.20542C9.15224 3.1801 9.20192 3.15587 9.25243 3.13247C9.33542 3.09413 9.41972 3.05888 9.50492 3.02632C9.57757 2.99886 9.65094 2.97259 9.72613 2.94899C9.75903 2.93852 9.79159 2.92687 9.82463 2.91724H9.82654C9.89072 2.79912 9.96679 2.65491 10.0128 2.56489C10.0188 2.55485 10.0288 2.54887 10.0389 2.54887C10.0528 2.54887 10.0669 2.55879 10.0689 2.57695L10.1041 2.82977L10.1061 2.847C10.1062 2.847 10.1063 2.847 10.1064 2.847L10.107 2.85126C10.3592 2.79914 10.6176 2.77317 10.8759 2.77317C10.972 2.77317 11.0701 2.77713 11.1662 2.78514C11.2622 2.69499 11.3704 2.58499 11.4386 2.51685C11.4445 2.51086 11.4525 2.50884 11.4606 2.50884C11.4766 2.50884 11.4926 2.52281 11.4886 2.54291L11.4457 2.80727L11.4452 2.8109L11.4446 2.81517C11.8391 2.87322 12.2295 2.99531 12.6059 3.18352Z" fill="#1FB588"/>
<path d="M8.81958 10.3819C8.3289 10.1976 7.7943 10.0975 7.23772 10.0975C6.85523 10.0975 6.48286 10.1456 6.12849 10.2357C4.46051 10.6522 3.17694 11.9897 2.88868 13.6556C2.85661 13.8359 3.0228 14 3.23502 14H11.2383C11.4525 14 11.6188 13.8359 11.5866 13.6556C11.3265 12.1519 10.2531 10.9144 8.81958 10.3819ZM4.43847 12.5343C4.72474 11.9736 5.23541 11.5452 5.86002 11.355C6.05827 11.2928 6.26849 11.2568 6.4868 11.2468C6.48882 11.2468 6.48882 11.2468 6.49085 11.2468C6.66902 11.2408 6.77711 11.4471 6.67298 11.5892C6.63697 11.6392 6.60088 11.6913 6.56692 11.7434C6.37466 12.0338 6.2185 12.3381 6.1024 12.6524C6.07227 12.7365 5.99622 12.7927 5.90809 12.7966L4.64462 12.8507C4.47651 12.8587 4.36235 12.6825 4.43847 12.5343Z" fill="#1FB588"/>
</svg>
