<svg width="25" height="24" viewBox="0 0 25 24" fill="none" xmlns="http://www.w3.org/2000/svg">
<path d="M12.439 0C5.81218 0 0.438965 5.37321 0.438965 12C0.438965 18.6268 5.81218 24 12.439 24C19.0658 24 24.439 18.6268 24.439 12C24.439 5.37321 19.0658 0 12.439 0ZM18.2059 9.04554C18.214 9.17143 18.214 9.30268 18.214 9.43125C18.214 13.3634 15.2193 17.8929 9.747 17.8929C8.0595 17.8929 6.49521 17.4027 5.17736 16.5589C5.41843 16.5857 5.64879 16.5964 5.89522 16.5964C7.28807 16.5964 8.56843 16.125 9.58897 15.3268C8.28182 15.3 7.18361 14.4429 6.80861 13.2643C7.26664 13.3313 7.67914 13.3313 8.15057 13.2107C7.47752 13.074 6.87256 12.7084 6.43847 12.1762C6.00439 11.644 5.76795 10.9779 5.76932 10.2911V10.2536C6.16307 10.4759 6.62646 10.6125 7.11129 10.6313C6.70372 10.3596 6.36948 9.99164 6.13819 9.5599C5.90691 9.12817 5.78572 8.64603 5.78539 8.15625C5.78539 7.60179 5.93004 7.09554 6.18986 6.65625C6.93692 7.5759 7.86914 8.32806 8.92592 8.86384C9.98271 9.39961 11.1404 9.70702 12.3238 9.76607C11.9033 7.74375 13.414 6.10714 15.23 6.10714C16.0872 6.10714 16.8586 6.46607 17.4024 7.04464C18.0747 6.91875 18.7175 6.66696 19.2908 6.32946C19.0684 7.01786 18.6024 7.59911 17.9836 7.96607C18.5836 7.90179 19.1622 7.73571 19.6979 7.50268C19.2934 8.09732 18.7872 8.625 18.2059 9.04554Z" fill="#FEFEFE"/>
</svg>
